<?xml version="1.0" encoding="utf-8"?><svg xmlns="http://www.w3.org/2000/svg" xmlns:xlink="http://www.w3.org/1999/xlink" width="1440" height="767" preserveAspectRatio="xMidYMid" viewBox="0 0 1440 767" style="z-index:1;margin-right:-2px;display:block;background-repeat-y:initial;background-repeat-x:initial;background-color:rgb(255, 255, 255);animation-play-state:paused" ><g transform="translate(720,383.5) scale(1,1) translate(-720,-383.5)" style="transform:matrix(1, 0, 0, 1, 0, 0);animation-play-state:paused" ><linearGradient id="lg-0.7588000562297739" x1="0" x2="1" y1="0" y2="0" style="animation-play-state:paused" ><stop stop-color="#ff00ff" offset="0" style="animation-play-state:paused" ></stop>

  
<stop stop-color="#00ffff" offset="1" style="animation-play-state:paused" ></stop></linearGradient>
<path d="M 0 0 L 0 720.46 Q 144 627.625 288 604.49 T 576 577.924 T 864 469.106 T 1152 369.766 T 1440 254.787 L 1440 0 Z" fill="url(#lg-0.7588000562297739)" opacity="0.4" style="opacity:0.4;animation-play-state:paused" ></path>
<path d="M 0 0 L 0 638.411 Q 144 627.617 288 608.031 T 576 533.182 T 864 517.262 T 1152 439.257 T 1440 385.873 L 1440 0 Z" fill="url(#lg-0.7588000562297739)" opacity="0.4" style="opacity:0.4;animation-play-state:paused" ></path>
<path d="M 0 0 L 0 740.87 Q 144 685.21 288 650.652 T 576 614.129 T 864 487.752 T 1152 433.307 T 1440 396.49 L 1440 0 Z" fill="url(#lg-0.7588000562297739)" opacity="0.4" style="opacity:0.4;animation-play-state:paused" ></path>
<path d="M 0 0 L 0 645.624 Q 144 693.758 288 664.66 T 576 515.091 T 864 438.17 T 1152 459.182 T 1440 326.505 L 1440 0 Z" fill="url(#lg-0.7588000562297739)" opacity="0.4" style="opacity:0.4;animation-play-state:paused" ></path>
<path d="M 0 0 L 0 673.364 Q 144 634.515 288 603.429 T 576 538.502 T 864 449.718 T 1152 404.138 T 1440 334.043 L 1440 0 Z" fill="url(#lg-0.7588000562297739)" opacity="0.4" style="opacity:0.4;animation-play-state:paused" ></path></g></svg>